<?xml version="1.0" encoding="UTF-8"?>
<svg id="Capa_1" data-name="Capa 1" xmlns="http://www.w3.org/2000/svg" viewBox="0 0 1000 1000">
  <defs>
    <style>
      .cls-1 {
        fill: #1b1464;
      }
    </style>
  </defs>
  <path class="cls-1" d="M888,504.46c72.07-27.45,123.2,58.66,65.08,108.03-118.55,49.03-245.5,145.88-377.95,141.43-70.92-2.38-146.15-33.48-210.62,14.54,40.12,79.07-23.58,162.67-107.21,111.22-48.63-29.93-172.71-118.39-211.32-156.5-55.64-54.91-7.54-134.84,63.41-128.88,19.48,1.64,34,12.97,51.45,18.72,59.57-49.32,111.25-109.01,193.85-116.67,41.49-3.85,225.25,13.99,259.6,30.44,11.29,5.4,20.75,13.99,30.47,21.59l151.98-96.32c42.37-24.18,91.77,3.56,91.27,52.4M667.29,602.55l173.06-78.27c23.47-11.61,14.24-44.36-8.49-47.78-8.93-1.33-15.63,4.58-22.79,8.35-17.08,9-143.43,87.08-145,95.65-1.01,5.43,4.99,15.09,3.22,22.05M634.57,610.72c-2.31-32.35-25.47-53.44-56.15-60.33-51.71-11.64-200.87-26.5-248.94-13.84-30.44,8.02-52.57,22.68-76.93,41.6l-63.44,59.1,149.15,108.51c81.75-67.02,183.67-21.89,278.09-28.59,51.93-3.67,92.15-24.98,138.2-45.71,60.13-27.07,118.68-59.04,178.26-87.39,23.16-19.65,6.92-53.28-22.3-51.29l-258.53,113.76c-16.62,2.8-97.84,3.61-111.63-.87-6.24-2.03-11.46-5.3-12.27-12.6-2.9-6.17,5.9-22.34,10.44-22.34h96.05ZM98.08,627.97c-32.06,2.78-59.84,43.8-29.75,68.77l215.81,160.18c58.73,16.39,78.02-39.13,37.89-78.73-24.82-24.5-162.83-127.01-192.78-142.35-7.97-4.07-22.34-8.62-31.17-7.86"/>
  <path class="cls-1" d="M593.7,385.94h104.22c7.16,0,18.25,13.79,14.5,22.37-1.24,9.61-10.54,12.86-18.86,14.14-46.88,7.25-190.86,4.98-241.04.46-9.89-.88-20.63-1.08-25.79-11.08l1.41-17.78,38.86-10.13c-23.59-37.7-95.76-85.55-98.24-130.94-2.88-52.7,56.82-89.02,102.19-61.01l59.3,59.02,106.19-126.79c30.57-28.21,78.14-26.89,102.09,8.63,23.77,35.26,12.2,60.5-10.03,91.59-39.4,55.11-95.76,105.05-134.79,161.52M674.26,141.6c-6.89,1.57-12.6,6.24-17.35,11.24l-117.3,140.2-13.2,3.1c-21.91-9.19-59.35-72.44-78.67-76.9-33.24-7.68-53.19,17.55-38.78,46.94l104.82,115.88,33.93.77,166.35-197.32c10.26-28.59-10.32-50.66-39.8-43.91"/>
</svg>