<?xml version="1.0" encoding="UTF-8"?>
<svg id="Capa_1" data-name="Capa 1" xmlns="http://www.w3.org/2000/svg" viewBox="0 0 50 50">
  <defs>
    <style>
      .cls-1 {
        fill: #fff;
      }

      .cls-1, .cls-2 {
        fill-rule: evenodd;
      }

      .cls-2 {
        fill: #0080ff;
      }
    </style>
  </defs>
  <path class="cls-2" d="M49.41,37.02c0,.27,0,.85-.02,1.3-.04,1.1-.13,2.51-.26,3.15-.2.97-.5,1.88-.88,2.64-.46.9-1.05,1.71-1.74,2.4-.7.69-1.5,1.28-2.4,1.74-.77.39-1.68.69-2.66.88-.64.13-2.04.21-3.13.25-.45.02-1.03.02-1.29.02H12.98c-.27,0-.85-.01-1.3-.03-1.1-.04-2.51-.13-3.15-.26-.97-.2-1.88-.5-2.64-.88-.9-.46-1.71-1.05-2.4-1.74-.69-.7-1.28-1.5-1.74-2.4-.39-.77-.69-1.68-.88-2.66-.13-.64-.21-2.04-.25-3.13-.02-.45-.02-1.03-.02-1.29V12.98c0-.27.01-.85.03-1.3.04-1.1.13-2.51.26-3.15.2-.97.5-1.88.88-2.64.46-.9,1.05-1.71,1.74-2.4.7-.69,1.5-1.28,2.4-1.74.76-.39,1.68-.69,2.66-.88.64-.13,2.04-.21,3.13-.25.45-.02,1.03-.02,1.29-.02h24.05c.27,0,.85.01,1.29.03,1.1.04,2.51.13,3.15.26.97.2,1.88.5,2.64.88.9.46,1.71,1.05,2.4,1.74.69.7,1.28,1.5,1.74,2.4.39.76.69,1.68.88,2.66.13.64.21,2.04.25,3.13.02.45.02,1.03.02,1.3v24.05h0Z"/>
  <path class="cls-1" d="M28.39,25.02h6.52l-.93,6.9h-5.64v17.49h-7.42v-17.51s-6.1,0-6.1,0v-6.89h6.13v-4.85c0-1.14.05-2.22.35-3.32.39-1.43,1.06-2.8,2.07-3.89,1.45-1.55,3.32-2.15,5.37-2.38.89-.1,1.71-.16,2.61-.09,1.28.1,2.55.3,3.81.52v5.78c-.27-.03-3.68.04-4.04.13-3.17.79-2.78,4.16-2.78,6.93v1.18h.04Z"/>
</svg>