<?xml version="1.0" encoding="UTF-8"?>
<svg id="Capa_1" data-name="Capa 1" xmlns="http://www.w3.org/2000/svg" viewBox="0 0 1000 1000">
  <defs>
    <style>
      .cls-1 {
        fill: #1b1464;
      }
    </style>
  </defs>
  <path class="cls-1" d="M70.52,833.06c3.54-.46-2.69-6.44-2.25-8.87l-2.08.85-2.32-1.75c.03-1.55,3.45-.54,1.75-2.64-.11-.12-1.64.3-1.76-.53-1.74-11.48-7.73-22.25-10.19-34.05l-4.86-28.37c.45-9.29-.62-19.15,0-28.36,2.53-37.4,19.98-76.81,44.73-104.61l157.76-157.77c42.98-31.2,94.04,21.44,61.58,63.39-47.32,51.27-103.39,98.07-149.79,149.77-34.95,38.95-34.11,88.45.45,127.25,39.15,43.93,83.81,71.14,140.74,35.28,74.76-70.62,146.73-144.69,218.96-217.97,26.5-34.72,24.93-80-2.17-113.81-3.59-4.48-7.86-7.5-11.16-12.76-23.8-37.97,15.65-83.07,56.36-64.37,13.68,6.27,29.63,27.6,37.6,40.39,41.86,67.2,34.68,155.03-18.06,214.03l-214.93,214.93c-27.7,24.52-66.94,41.81-104.08,44.34h-28.36l-27.64-4.69c-52.03-11.89-100.19-55.62-130.8-97.86-1.36-1.88-4.85-8.5-5.84-9.22"/>
  <path class="cls-1" d="M743.48,60.95l30.68,5.21c46.66,10.58,83.19,43.55,114.21,78.11,21.87,24.36,37.72,55.18,43.59,87.58,1.18,6.52,1.31,13.27,2.92,19.69-.42,8.71.58,17.94,0,26.58-2.56,37.64-19.63,77.28-44.73,105.5-47.43,53.31-105.74,101.38-154.22,154.22-42.99,31.21-93.93-21.42-61.58-63.39,46.05-50.44,102.14-96.23,147.14-147.1,26.17-29.61,32.61-68.26,14.48-104.08-8.91-17.58-47.26-55.82-65.03-64.37-31.5-15.14-68-11.44-95.62,9.82l-214.87,214.97c-24.32,31.62-25.79,75.88-2.12,108.35,8.46,11.61,18.55,17.85,21.59,33.36,6.71,34.27-25.62,62.58-58.77,50.82-22.49-7.98-46.94-47.83-55.57-69.4-25.27-63.27-12.97-135.94,32.31-186.61l214.93-214.93c28.86-24.81,65.22-41.2,103.57-43.52l1.4-.82h25.7Z"/>
  <path class="cls-1" d="M169.09,164.9c8.41-1.23,12.96.89,19.24,6,18.2,21.09,44.3,40.29,61.57,61.6,17.89,22.08-7.04,46.87-28.24,30.93-22.09-16.59-42.83-46.64-64.76-64.65-9.57-12.14-3.42-31.61,12.19-33.89"/>
  <path class="cls-1" d="M744.13,740.19c7.87-1.35,13.36,1.23,19.25,6.02,21.31,17.28,40.51,43.4,61.58,61.61,18.2,20.05-5.94,47.68-28.25,30.92-21.76-16.35-42.26-45.99-63.85-63.77-10.75-11.75-4.65-32.04,11.26-34.77"/>
  <path class="cls-1" d="M771.61,568.22l96.86.19c22.97,5.53,21.38,38.33-2.36,41.17-28.81,3.45-64.13-2.2-93.61-.12-22.81-4.76-23.42-35.38-.89-41.24"/>
  <path class="cls-1" d="M405.72,110.8c11.56-.82,21.38,8.34,22.34,19.71,2.56,29.86-1.8,63.55-.24,93.79-6.04,23.67-39.21,21.43-41.48-3.3-2.64-28.9,1.97-61.9.15-91.24,1.15-9.74,9.37-18.25,19.23-18.95"/>
  <path class="cls-1" d="M116.81,398.92h93.45c23.51,4.51,24.76,36.02,1.05,41.36l-96.29-.13c-22.81-6.12-21.38-36.87,1.79-41.23"/>
  <path class="cls-1" d="M573.14,767.69c12.89-1.64,23.08,7.98,24.17,20.57,2.5,28.97-1.75,61.74-.27,91.11-3.72,24.37-39.27,23.93-41.45-.62-2.66-29.83,2-63.66.12-93.92,1.75-8.56,8.56-16,17.43-17.14"/>
</svg>