<?xml version="1.0" encoding="UTF-8"?>
<svg id="Capa_1" data-name="Capa 1" xmlns="http://www.w3.org/2000/svg" viewBox="0 0 50 50">
  <defs>
    <style>
      .cls-1, .cls-2 {
        fill-rule: evenodd;
      }

      .cls-2 {
        fill: #1ed761;
      }
    </style>
  </defs>
  <path d="M48.99,39c-.02,2.97-1.22,5.65-3.13,7.58-1.91,1.93-4.55,3.11-7.44,3.09l-13.62-.11-13.62-.11c-2.9-.02-5.51-1.25-7.39-3.21-1.88-1.96-3.04-4.66-3.01-7.63l.11-13.8.11-13.8c.02-2.97,1.22-5.65,3.13-7.58C6.05,1.49,8.68.31,11.58.33l13.62.11,13.62.11c2.9.02,5.51,1.25,7.39,3.21,1.88,1.96,3.04,4.66,3.01,7.63l-.11,13.8-.11,13.8Z"/>
  <g>
    <path class="cls-2" d="M40.38,25c0,8.49-6.89,15.38-15.38,15.38s-15.38-6.89-15.38-15.38,6.89-15.38,15.38-15.38,15.38,6.89,15.38,15.38"/>
    <path class="cls-1" d="M35.93,22c0,1.11-1.17,1.8-2.15,1.24-.66-.38-1.34-.72-2.05-1-1.41-.56-2.86-.94-4.35-1.21-1.04-.18-2.08-.3-3.13-.37-1.09-.07-2.18-.07-3.28-.02-1.25.06-2.49.2-3.72.47-.45.1-.9.22-1.35.34-.27.07-.54.08-.82,0-.6-.18-1.01-.71-1.03-1.34-.02-.61.36-1.18.95-1.37.43-.14.88-.25,1.32-.36,1.1-.26,2.21-.41,3.34-.51,1.19-.11,2.39-.14,3.59-.11,2.95.08,5.84.52,8.63,1.48,1.14.39,2.24.88,3.28,1.49.37.22.62.52.72.95.02.1.03.2.04.31"/>
    <path class="cls-1" d="M22.01,25.44c-1.76,0-3.56.23-5.31.75-.29.09-.57.09-.85-.02-.46-.19-.75-.64-.74-1.13.02-.51.32-.95.81-1.09.5-.15,1-.28,1.5-.39,1.24-.28,2.51-.42,3.78-.47,2.74-.1,5.42.25,8.04,1.09,1.32.42,2.59.98,3.78,1.69.06.04.12.07.18.11.62.38.7,1.15.4,1.63-.34.56-1.05.73-1.63.4-.33-.19-.66-.38-1-.55-1.55-.79-3.2-1.3-4.91-1.63-1.31-.25-2.64-.37-4.05-.38"/>
    <path class="cls-1" d="M22.29,28.04c2.02.02,4,.29,5.92.94,1.06.36,2.07.82,3.03,1.39.08.05.17.1.24.16.39.29.49.83.24,1.25-.24.41-.76.57-1.19.38-.09-.04-.17-.09-.25-.14-1.63-.97-3.38-1.56-5.25-1.85-1.15-.18-2.3-.24-3.46-.19-1.5.06-2.97.27-4.44.59-.15.03-.3.06-.45.06-.45,0-.83-.32-.91-.75-.08-.46.14-.89.57-1.06.09-.04.18-.06.28-.08,1.2-.27,2.4-.47,3.62-.57.68-.06,1.37-.08,2.05-.12"/>
  </g>
</svg>