<?xml version="1.0" encoding="UTF-8"?>
<svg id="Capa_1" data-name="Capa 1" xmlns="http://www.w3.org/2000/svg" viewBox="0 0 50 50">
  <defs>
    <style>
      .cls-1 {
        fill: #fff;
      }

      .cls-1, .cls-2, .cls-3 {
        fill-rule: evenodd;
      }

      .cls-2 {
        fill: #e6247c;
      }

      .cls-3 {
        fill: #009fdd;
      }
    </style>
  </defs>
  <path d="M49.02,39.01c-.02,2.97-1.22,5.66-3.14,7.59-1.92,1.93-4.55,3.12-7.45,3.09l-13.63-.11-13.63-.11c-2.9-.02-5.51-1.25-7.4-3.22s-3.04-4.67-3.01-7.64l.11-13.81.11-13.81c.02-2.97,1.22-5.66,3.14-7.59C6.03,1.46,8.67.28,11.57.3l13.63.11,13.63.11c2.9.02,5.51,1.25,7.4,3.22s3.04,4.67,3.01,7.64l-.11,13.81-.11,13.81Z"/>
  <g>
    <path id="path12" class="cls-2" d="M32.1,19.7c1.06.79,2.25,1.42,3.52,1.85s2.63.68,4.05.69l.02-2.78.02-2.78c-.27,0-.54-.02-.8-.05s-.53-.08-.79-.13l-.02,2.19-.02,2.19c-1.42-.01-2.78-.25-4.05-.69s-2.46-1.07-3.52-1.85l-.05,5.67-.05,5.67c-.02,2.84-1.17,5.4-3.01,7.24s-4.36,2.97-7.14,2.95c-1.04,0-2.04-.18-2.98-.48s-1.82-.75-2.62-1.3c.91.96,2,1.74,3.21,2.29s2.56.85,3.97.86c2.78.02,5.31-1.11,7.15-2.95,1.84-1.84,2.99-4.4,3.01-7.24l.05-5.67.05-5.67h0s0,0,0,0ZM34.11,14.1c-.54-.61-.99-1.32-1.32-2.08s-.54-1.6-.61-2.47v-.36s0-.36,0-.36h-.76s-.76-.01-.76-.01c.18,1.11.59,2.14,1.18,3.04s1.36,1.66,2.25,2.24ZM18.23,33.76c-.3-.41-.53-.87-.69-1.35s-.23-.99-.23-1.5c.01-1.3.54-2.47,1.38-3.31s2-1.36,3.27-1.35c.24,0,.47.02.71.06s.46.1.69.17l.02-2.84.02-2.84c-.26-.04-.53-.07-.79-.09s-.53-.02-.8-.02l-.02,2.21-.02,2.21c-.23-.07-.46-.13-.69-.17s-.47-.06-.71-.06c-1.27-.01-2.43.51-3.27,1.35s-1.37,2.01-1.38,3.31c0,.92.24,1.78.68,2.5s1.07,1.32,1.82,1.72Z"/>
    <path id="path14" class="cls-1" d="M30.52,18.33c1.06.79,2.25,1.42,3.52,1.85s2.63.68,4.05.69l.02-2.19.02-2.19c-.79-.18-1.53-.48-2.21-.89s-1.28-.91-1.81-1.5c-.9-.58-1.66-1.35-2.25-2.24-.59-.9-1-1.93-1.18-3.04l-1.98-.02-1.98-.02-.09,11.1-.09,11.1c-.01,1.29-.54,2.46-1.38,3.3s-1.99,1.35-3.26,1.34c-.75,0-1.45-.19-2.07-.52s-1.16-.8-1.58-1.36c-.75-.39-1.38-.99-1.82-1.72s-.69-1.59-.68-2.5c.01-1.3.54-2.47,1.38-3.31s2-1.36,3.27-1.35c.24,0,.48.02.72.06s.46.1.68.17l.02-2.21.02-2.21c-2.73.03-5.21,1.18-7,3.02s-2.92,4.37-2.94,7.17c-.01,1.4.25,2.73.74,3.95.49,1.22,1.19,2.32,2.08,3.26.8.56,1.68,1,2.62,1.3s1.94.47,2.98.48c2.78.02,5.31-1.11,7.14-2.95,1.84-1.84,2.98-4.4,3.01-7.24l.05-5.67.05-5.67Z"/>
    <path id="path16" class="cls-3" d="M38.12,16.5v-.59s0-.59,0-.59c-.71,0-1.42-.11-2.09-.32s-1.33-.5-1.93-.89c.53.6,1.15,1.11,1.82,1.52s1.41.7,2.19.88ZM30.68,8.82c-.02-.11-.03-.21-.05-.32s-.02-.21-.03-.32v-.36s0-.36,0-.36l-2.74-.02-2.74-.02-.09,11.1-.09,11.1c-.01,1.29-.54,2.46-1.38,3.3s-1.99,1.35-3.26,1.34c-.37,0-.73-.05-1.08-.14s-.68-.22-.99-.38c.42.57.96,1.04,1.58,1.36s1.33.52,2.07.52c1.27.01,2.42-.5,3.26-1.34.84-.84,1.37-2.01,1.38-3.3l.09-11.1.09-11.1,1.98.02,1.98.02ZM21.81,20.68v-.63s.01-.63.01-.63c-.23-.03-.46-.06-.69-.08s-.46-.03-.69-.03c-2.78-.02-5.31,1.11-7.15,2.95-1.84,1.84-2.99,4.4-3.01,7.24-.01,1.78.42,3.46,1.18,4.92s1.87,2.72,3.21,3.65c-.88-.93-1.59-2.04-2.08-3.26s-.75-2.55-.74-3.95c.02-2.8,1.14-5.33,2.94-7.17,1.8-1.84,4.27-2.99,7-3.02Z"/>
  </g>
</svg>