<?xml version="1.0" encoding="UTF-8"?>
<svg id="Capa_1" data-name="Capa 1" xmlns="http://www.w3.org/2000/svg" viewBox="0 0 1000 1000">
  <defs>
    <style>
      .cls-1 {
        fill: #1b1464;
      }
    </style>
  </defs>
  <path class="cls-1" d="M907.8,11.73c17.92,7.12,30.67,18.76,32.47,39v897.96c-8.61,56.59-83.66,49.2-84-7.62V58.36c1.78-23.49,11.09-39.58,34.39-46.63h17.15Z"/>
  <path class="cls-1" d="M59.73,955.29v-112.46c8.71-38.82,65.01-45.96,79.65-8.18,6.94,17.93,5.69,82.72,4.29,104.53-3.66,56.98-62.59,66.99-83.94,16.12"/>
  <path class="cls-1" d="M690.04,212.33c25.66-4.36,47.08,10.65,50.13,36.64l-.07,703.47c-8.32,48.41-77.74,46.26-82.03-3.76l.06-701.55c1.67-15.94,16.06-32.1,31.91-34.8"/>
  <path class="cls-1" d="M495.73,410.57c24.73-2.58,45.44,17.99,46.23,42.38l-.09,493.74c-6.22,54.91-79.01,55.22-83.9-1.81l.09-493.74c1.56-20.35,16.93-38.4,37.67-40.57"/>
  <path class="cls-1" d="M291.73,610.73c25.29-4.31,47.42,10.85,50.13,36.64l-.29,304.84c-8.18,47.72-75.94,46.77-81.81-1.61l.06-305.08c1.67-15.94,16.06-32.1,31.91-34.8"/>
</svg>