<?xml version="1.0" encoding="UTF-8"?>
<svg id="Capa_1" data-name="Capa 1" xmlns="http://www.w3.org/2000/svg" viewBox="0 0 1000 1000">
  <defs>
    <style>
      .cls-1 {
        fill: #1b1464;
      }
    </style>
  </defs>
  <path class="cls-1" d="M938.25,835.39H66.46c-3.87-2.48-20.47-73.54-21.97-83.68C-6.73,404.1,324.86,126.94,657.43,243.04c238.52,83.27,368.49,353.26,280.82,592.35M472.17,281.5c-62.74,3.24-124.7,23.77-178.12,56.49-11.18,6.84-42.59,26.6-49.71,35.38-3.45,4.28-2.52,1.72.04,5.54,13.62,20.37,71.28,59.26,71.48,82.26.22,22.42-22.45,36.4-43.27,29.48-16.59-5.51-69.12-70.93-76.11-69.21-55.05,64.21-85.36,143.89-94.74,227.74h100.15c12.28,0,24.05,21.84,23.21,33.96-.96,13.83-18.13,29.15-31.44,29.15h-85.07c-.59,0-3.11-4.11-4.09-2.75-2.03,8.52,5.21,62.12,10.02,63.23l235.18-.47c4.01-1.37,9.91-26.44,13.09-33.56,29.49-66.17,104.61-102.51,175.3-85.54,11.97,2.88,23.62,12.67,35.44,8.23l249.81-174.15-176.25,256,7.53,29.36h237.34l8.23-60.36h-91.91c-11.1,0-27.65-17.61-28.78-29.08-1.17-11.99,11.29-34.03,23.28-34.03h100.15c-9.33-84.05-39.62-163.37-94.74-227.74-6.99-1.72-59.51,63.71-76.11,69.21-22.05,7.32-45.45-8.46-43.12-31.92,2.11-21.39,58.02-59.91,71.34-79.82,2.56-3.82,3.49-1.27.02-5.54-5.59-6.9-36.64-28.05-45.82-33.77-54.15-33.76-118.17-54.1-181.99-58.1v100.15c0,9.88-21.26,21.01-31.45,20.69-9.23-.29-28.91-11.98-28.91-20.69v-100.15ZM587.42,772.66c-29.09-81.02-140.9-81.08-170.12,0h170.12Z"/>
</svg>