<?xml version="1.0" encoding="UTF-8"?>
<svg id="Capa_1" data-name="Capa 1" xmlns="http://www.w3.org/2000/svg" xmlns:xlink="http://www.w3.org/1999/xlink" viewBox="0 0 50 50">
  <defs>
    <style>
      .cls-1 {
        fill: none;
      }

      .cls-2 {
        fill: #39b44a;
      }

      .cls-3 {
        clip-path: url(#clippath-1);
      }

      .cls-4 {
        fill: #fff;
      }

      .cls-5 {
        clip-path: url(#clippath);
      }
    </style>
    <clipPath id="clippath">
      <rect class="cls-1" x=".58" y=".58" width="48.84" height="48.84"/>
    </clipPath>
    <clipPath id="clippath-1">
      <rect class="cls-1" x=".58" y=".58" width="48.84" height="48.84"/>
    </clipPath>
  </defs>
  <g id="WHATSAPP">
    <g class="cls-5">
      <g class="cls-3">
        <g>
          <path class="cls-2" d="M40.07,49.42H9.93c-5.49,0-9.35-4.18-9.35-9.35V9.93C.58,4.76,4.95.58,9.93.58h30.16c5.66,0,9.33,4.18,9.33,9.35v30.16c0,5.15-3.66,9.35-9.35,9.35"/>
          <path class="cls-4" d="M25,41.36c-2.93,0-5.84-.78-8.38-2.25l-6.54,2.25,1.34-6.93c-2.1-2.88-3.22-6.3-3.22-9.86,0-9.25,7.55-16.8,16.8-16.8s16.8,7.55,16.8,16.8-7.55,16.8-16.8,16.8M16.92,36.35l.51.32c2.27,1.44,4.91,2.2,7.57,2.2,7.89,0,14.31-6.42,14.31-14.31s-6.42-14.31-14.31-14.31-14.31,6.42-14.31,14.31c0,3.2,1.05,6.25,3.03,8.79l.34.44-.73,3.78,3.56-1.22h.02Z"/>
          <path class="cls-4" d="M16.53,18.09s.98-1.73,1.78-1.83,1.83-.1,2.12.42c.27.54,1.51,3.59,1.51,3.59,0,0,.22.54-.12,1.03-.32.51-1.07,1.25-1.07,1.25,0,0-.42.54,0,1.07.42.56,1.05,1.59,2.37,2.91,1.32,1.32,3.83,2.25,3.83,2.25,0,0,.37.05.59-.17s1.49-1.78,1.49-1.78c0,0,.39-.51,1.07-.22.66.29,3.54,1.73,3.54,1.73,0,0,.34.12.34.63s-.2,1.76-.63,2.17c-.42.42-1.66,1.71-3.49,1.71s-6.25-1.51-8.59-3.86c-2.34-2.34-4.42-4.74-4.93-6.89-.49-2.17-.42-3.15.17-4.03"/>
        </g>
      </g>
    </g>
  </g>
</svg>