<?xml version="1.0" encoding="UTF-8"?>
<svg id="Capa_1" data-name="Capa 1" xmlns="http://www.w3.org/2000/svg" viewBox="0 0 50 50">
  <defs>
    <style>
      .cls-1 {
        fill: #e4252a;
      }

      .cls-2 {
        fill: #fff;
      }
    </style>
  </defs>
  <path class="cls-1" d="M48.95,38.97c-.02,2.97-1.22,5.64-3.13,7.57-1.91,1.93-4.54,3.11-7.43,3.08l-13.59-.11-13.59-.11c-2.89-.02-5.5-1.25-7.38-3.21-1.88-1.96-3.03-4.65-3.01-7.62l.11-13.77.11-13.77c.02-2.97,1.22-5.64,3.13-7.57C6.09,1.53,8.71.35,11.61.38l13.59.11,13.59.11c2.89.02,5.5,1.25,7.38,3.21s3.03,4.65,3.01,7.62l-.11,13.77-.11,13.77Z"/>
  <g>
    <path class="cls-2" d="M41.91,17.43c-.2-.77-.61-1.45-1.15-1.99s-1.23-.95-1.99-1.15c-1.39-.37-4.86-.56-7.99-.65s-5.91-.09-5.91-.09c0,0-2.78,0-5.91.09s-6.6.28-7.99.65c-.77.2-1.45.61-1.99,1.15-.54.54-.95,1.23-1.15,1.99-.37,1.39-.56,3.53-.65,5.32s-.09,3.24-.09,3.24c0,0,0,1.45.09,3.24s.28,3.94.65,5.32c.2.77.61,1.45,1.15,1.99s1.23.95,1.99,1.15c1.39.37,4.86.56,7.99.65,3.13.09,5.91.09,5.91.09,0,0,2.78,0,5.91-.09,3.13-.09,6.6-.28,7.99-.65.77-.2,1.45-.61,1.99-1.15s.95-1.23,1.15-1.99c.37-1.39.56-3.53.65-5.32s.09-3.24.09-3.24c0,0,0-1.45-.09-3.24s-.28-3.94-.65-5.32Z"/>
    <polygon class="cls-1" points="21.31 31.33 25.93 28.66 30.55 25.99 25.93 23.32 21.31 20.65 21.31 25.99 21.31 31.33"/>
  </g>
</svg>