<?xml version="1.0" encoding="UTF-8"?>
<svg id="Logo_5g" data-name="Logo 5g" xmlns="http://www.w3.org/2000/svg" xmlns:xlink="http://www.w3.org/1999/xlink" viewBox="0 0 46.54 28.45">
  <defs>
    <style>
      .cls-1 {
        fill: none;
      }

      .cls-2 {
        clip-path: url(#clippath-1);
      }

      .cls-3 {
        fill: #132737;
      }

      .cls-4 {
        fill: url(#Degradado_sin_nombre);
      }

      .cls-5 {
        clip-path: url(#clippath-2);
      }

      .cls-6 {
        fill: #019df4;
      }

      .cls-7 {
        clip-path: url(#clippath);
      }
    </style>
    <clipPath id="clippath">
      <rect class="cls-1" width="46.54" height="28.45"/>
    </clipPath>
    <clipPath id="clippath-1">
      <path class="cls-1" d="M1.78.05s-.66,14.01-.64,15.18l2.61.59c.19-1.15.77-12.37.77-12.37,0,0,14.69.1,16.16.09L20.89.01c-.33-.02-1.46-.02-3.02-.02C12.43,0,1.78.05,1.78.05Z"/>
    </clipPath>
    <linearGradient id="Degradado_sin_nombre" data-name="Degradado sin nombre" x1="-500.54" y1="920.85" x2="-500.53" y2="920.85" gradientTransform="translate(11122.01 17523.41) scale(22.22 -19.02)" gradientUnits="userSpaceOnUse">
      <stop offset="0" stop-color="#dc6a53"/>
      <stop offset="0" stop-color="#dc6a53"/>
      <stop offset=".07" stop-color="#bc5f4e"/>
      <stop offset=".18" stop-color="#8f5048"/>
      <stop offset=".3" stop-color="#694343"/>
      <stop offset=".42" stop-color="#4a393e"/>
      <stop offset=".55" stop-color="#31313b"/>
      <stop offset=".68" stop-color="#202b38"/>
      <stop offset=".83" stop-color="#162837"/>
      <stop offset="1" stop-color="#132737"/>
    </linearGradient>
    <clipPath id="clippath-2">
      <rect class="cls-1" width="46.54" height="28.45"/>
    </clipPath>
  </defs>
  <g id="Grupo_7766" data-name="Grupo 7766">
    <g id="Grupo_7761" data-name="Grupo 7761">
      <g class="cls-7">
        <g id="Grupo_7760" data-name="Grupo 7760">
          <path id="Trazado_9434" data-name="Trazado 9434" class="cls-6" d="M33.07,17.49h6.19c-1.81,3.84-6.38,5.49-10.22,3.68-3.84-1.81-5.49-6.38-3.68-10.22,1.81-3.84,6.38-5.49,10.22-3.68.79.37,1.51.88,2.14,1.49l1.49-1.51c-3.85-3.81-10.05-3.78-13.86.07-3.81,3.85-3.78,10.05.07,13.86,3.85,3.81,10.05,3.78,13.86-.07,1.54-1.55,2.51-3.58,2.77-5.75h-8.98v2.12Z"/>
          <path id="Trazado_9435" data-name="Trazado 9435" class="cls-6" d="M44.41,10.95h-11.34v2.12h11.34v1.15c0,6.68-5.42,12.1-12.1,12.1-6.68,0-12.1-5.42-12.1-12.1,0-6.68,5.42-12.1,12.1-12.1,3.19,0,6.25,1.26,8.51,3.5l1.51,1.49,1.49-1.51-1.51-1.49c-5.58-5.53-14.58-5.48-20.11.1-5.53,5.58-5.48,14.58.1,20.11,5.58,5.53,14.58,5.48,20.11-.1,2.64-2.66,4.12-6.26,4.12-10.01v-3.26h-2.12Z"/>
        </g>
      </g>
    </g>
    <g id="Grupo_7763" data-name="Grupo 7763">
      <g class="cls-2">
        <g id="Grupo_7762" data-name="Grupo 7762">
          <rect id="Rectángulo_2123" data-name="Rectángulo 2123" class="cls-4" x="-.11" y="-1.6" width="22.22" height="19.02" transform="translate(-1.21 2.04) rotate(-10.04)"/>
        </g>
      </g>
    </g>
    <g id="Grupo_7765" data-name="Grupo 7765">
      <g class="cls-5">
        <g id="Grupo_7764" data-name="Grupo 7764">
          <path id="Trazado_9437" data-name="Trazado 9437" class="cls-3" d="M1.13,15.22c.63-1.2,1.38-2.33,2.24-3.38.79-.98,1.75-1.8,2.84-2.42,1.09-.61,2.27-1.04,3.5-1.25,1.21-.21,2.43-.26,3.65-.13,1.27.12,2.51.46,3.66,1.02.6.3,1.16.66,1.68,1.09.52.43.99.93,1.4,1.47.78,1.07,1.32,2.28,1.61,3.57.14.61.23,1.23.27,1.86.04.62.04,1.24-.02,1.86-.24,2.59-1.46,5-3.4,6.73-.95.84-2.04,1.5-3.22,1.95-1.15.44-2.36.71-3.59.8-2.5.23-5-.32-7.18-1.57-1.1-.66-2.07-1.52-2.87-2.53-.4-.52-.75-1.08-1.04-1.67-.29-.6-.52-1.23-.67-1.88l3.5-.83c.21.79.57,1.53,1.06,2.19.52.68,1.16,1.27,1.88,1.74.74.49,1.55.86,2.4,1.11.43.12.87.21,1.32.25.23.02.45.03.68.03s.47,0,.7-.02c.46-.03.91-.09,1.36-.18.44-.1.87-.23,1.29-.39.82-.32,1.56-.8,2.21-1.4.63-.58,1.13-1.29,1.47-2.08.33-.79.51-1.63.52-2.48,0-.45-.01-.9-.05-1.34-.04-.44-.1-.88-.2-1.31-.17-.81-.5-1.57-.97-2.25-.23-.32-.49-.61-.78-.87-.3-.27-.63-.5-.98-.69-.76-.41-1.59-.68-2.45-.8-1.8-.32-3.65-.09-5.31.67-1.64.8-2.94,2.17-3.66,3.85l-2.84-.72Z"/>
        </g>
      </g>
    </g>
  </g>
</svg>