<?xml version="1.0" encoding="UTF-8"?>
<svg id="Capa_1" data-name="Capa 1" xmlns="http://www.w3.org/2000/svg" viewBox="0 0 35.93 32">
  <defs>
    <style>
      .cls-1 {
        fill: #fff;
      }
    </style>
  </defs>
  <path class="cls-1" d="M19.19,9.21c.72.75,2.17.18,3.14.27,2.48.23,3.92,2.95,2.89,5.2-.57,1.24-2.14,1.77-2.26,3.17-.13,1.45.74,1.84,1.3,2.99,2.92,6.03-3.02,12.42-9.24,10.05-6.01-2.29-6.16-11.03-.2-13.54.75-.32,2.15-.42,2.65-.7.38-.22,1.15-1.38,1.17-1.81.02-.29-.19-.54-.31-1.26-.02-.13-.06-.35-.05-.63,0-.2,0-.33.06-.51.09-.33.21-.43.18-.65-.01-.07-.05-.15-.13-.23-.66-.68-1.1-.13-1.71.04-3.7,1.03-5.75-3.79-2.68-5.8,1.87-1.22,4.38-.07,4.84,2.06.11.5-.07.94.32,1.35ZM15.3,6.96c-1.62.34-1.6,2.89.12,3.19,2.55.44,2.54-3.74-.12-3.19ZM21.43,11.36c-1.5.28-1.86,2.6-.4,3.35,2.97,1.53,3.99-4.01.4-3.35ZM16.92,20.49c-4.26.72-3.58,7.89,1.33,7.23,4.67-.63,3.8-8.09-1.33-7.23Z"/>
  <path class="cls-1" d="M12.26,3.17c-.16.11-.23.36-.58.41-1.04.16-.89-.81-.22-1.38C13.27.65,15.8,0,17.96,1.25c.49.28,2.26,1.62,1.5,2.23-.66.52-1.64-.9-2.26-1.23-1.86-.99-3.39-.07-4.93.92Z"/>
  <path class="cls-1" d="M17.72,3.74c.43.4,1.04,1.45.09,1.58-.56.08-1.19-1.11-2.08-1.15-1.14-.05-2.17,1.41-2.82,1.09-.75-.37-.08-1.13.32-1.44,1.3-1.01,3.2-1.28,4.5-.08Z"/>
</svg>