<svg xmlns="http://www.w3.org/2000/svg" width="40" height="40" viewBox="0 0 40 40">
  <path id="icono-llamada" d="M363.445,139.733a16.356,16.356,0,0,1-5.949-1.3c-4.439-1.773-9.3-5.221-14.053-9.974l-.011-.012-.154-.148-.011-.011c-4.753-4.754-8.2-9.615-9.973-14.055-1.687-4.252-1.726-7.883-.108-10.225l.034-.052.023-.034a13.229,13.229,0,0,1,1.413-1.693,7.69,7.69,0,0,1,5.357-2.5,7.454,7.454,0,0,1,5.06,2.514,10.058,10.058,0,0,1,1.6,2.034,6.1,6.1,0,0,1,.946,4.338,8.037,8.037,0,0,1-2.433,4.263,11.475,11.475,0,0,1-1.009.9c-.131.24-.051.992,1.009,2.542a43.161,43.161,0,0,0,4.713,5.341l.171.171a43.713,43.713,0,0,0,5.339,4.713c1.545,1.061,2.3,1.14,2.542,1.009a10.983,10.983,0,0,1,.9-1.009,8.04,8.04,0,0,1,4.263-2.433,6.1,6.1,0,0,1,4.337.946,10.217,10.217,0,0,1,2.034,1.6A7.45,7.45,0,0,1,372,131.726a7.646,7.646,0,0,1-2.5,5.357,13.352,13.352,0,0,1-1.692,1.414l-.035.022a.357.357,0,0,0-.051.04A7.509,7.509,0,0,1,363.445,139.733Zm-18.389-12.875c4.53,4.531,9.124,7.8,13.278,9.461,3.453,1.374,6.394,1.505,8.069.365l.068-.045a10.66,10.66,0,0,0,1.374-1.135c2.484-2.6,2.49-4.764.017-7.232a7.916,7.916,0,0,0-1.579-1.249l-.034-.017a3.884,3.884,0,0,0-2.764-.644,5.826,5.826,0,0,0-3.031,1.8,8.09,8.09,0,0,0-.8.912c-.04.045-.08.091-.12.131a2.781,2.781,0,0,1-2.735.558,8.66,8.66,0,0,1-2.678-1.333,45.469,45.469,0,0,1-5.659-4.982l-.171-.171a45.019,45.019,0,0,1-4.98-5.665,8.558,8.558,0,0,1-1.334-2.679,2.813,2.813,0,0,1,.559-2.736.816.816,0,0,1,.131-.119,8.083,8.083,0,0,0,.911-.8,5.832,5.832,0,0,0,1.8-3.032,3.883,3.883,0,0,0-.644-2.764l-.018-.035a7.732,7.732,0,0,0-1.248-1.578c-2.467-2.468-4.632-2.463-7.231.022a10.583,10.583,0,0,0-1.134,1.374l-.051.068c-1.14,1.676-1,4.617.37,8.071,1.658,4.155,4.929,8.749,9.46,13.28l.08.08.022.022Z" transform="translate(-332 -99.733)" fill="#019df4"/>
</svg>
