<svg xmlns="http://www.w3.org/2000/svg" xmlns:xlink="http://www.w3.org/1999/xlink" width="50" height="50" viewBox="0 0 50 50">
  <defs>
    <clipPath id="clip-path">
      <rect id="Rectángulo_2556" data-name="Rectángulo 2556" width="50" height="50" transform="translate(626 87.733)" fill="#fff"/>
    </clipPath>
  </defs>
  <g id="icono-sms" transform="translate(-626 -87.733)" clip-path="url(#clip-path)">
    <path id="Trazado_11197" data-name="Trazado 11197" d="M673.315,122.65V99.971a5.755,5.755,0,0,0-5.842-5.65H633.639a5.756,5.756,0,0,0-5.85,5.65V122.65a5.543,5.543,0,0,0,4.462,5.528,1.014,1.014,0,0,1,.826.986v5.486a1.492,1.492,0,0,0,2.726.671l5.344-6.635a1.034,1.034,0,0,1,.812-.386h25.5A5.758,5.758,0,0,0,673.315,122.65Zm-6.07-30.086a7.758,7.758,0,0,1,7.871,7.614v22.558a7.753,7.753,0,0,1-7.871,7.614H642.379l-4.989,6.2a3.521,3.521,0,0,1-2.9,1.45,3.46,3.46,0,0,1-3.5-3.322v-4.692a7.539,7.539,0,0,1-5.267-7.258v-22.55a7.768,7.768,0,0,1,7.878-7.614Zm-29.82,18.05c1.815.707,4.078,1.579,4.078,4.536,0,2.614-1.85,4.114-5.067,4.114a11.31,11.31,0,0,1-3.551-.557.75.75,0,0,1-.477-.886l.135-.55a.749.749,0,0,1,.377-.478.787.787,0,0,1,.62-.065c1.928.593,4.227.565,5.109-.021a1.671,1.671,0,0,0,.691-1.529c0-1.471-1.011-1.935-2.8-2.628-1.765-.686-3.957-1.543-3.957-4.336a3.671,3.671,0,0,1,1.217-2.886c1.352-1.164,3.814-1.342,6.469-.592a.757.757,0,0,1,.541.914l-.135.528a.769.769,0,0,1-.37.472.811.811,0,0,1-.605.071,8.542,8.542,0,0,0-2.363-.35c-2.612,0-2.612,1.236-2.612,1.757C634.721,109.493,635.7,109.943,637.425,110.614Zm18.767-6.171a.764.764,0,0,1,.776.75V118.05a.76.76,0,0,1-.776.75h-.541a.764.764,0,0,1-.775-.75v-8.722l-3.395,6.25a.8.8,0,0,1-.683.408h-.577a.783.783,0,0,1-.69-.415l-3.259-6.164v8.65a.76.76,0,0,1-.776.75h-.541a.764.764,0,0,1-.776-.75V105.2a.759.759,0,0,1,.776-.75h.583a.775.775,0,0,1,.691.414l4.313,8.157,4.433-8.171a.8.8,0,0,1,.691-.407Zm8.192,6.043c1.8.7,4.049,1.564,4.049,4.5,0,2.592-1.836,4.085-5.031,4.085a11.4,11.4,0,0,1-3.523-.55.749.749,0,0,1-.477-.878l.135-.543a.751.751,0,0,1,.377-.479.773.773,0,0,1,.613-.064c1.914.586,4.2.557,5.074-.021a1.654,1.654,0,0,0,.683-1.515c0-1.464-1-1.921-2.783-2.607-1.75-.678-3.935-1.528-3.935-4.307a3.623,3.623,0,0,1,1.217-2.864c1.345-1.157,3.786-1.336,6.426-.586a.747.747,0,0,1,.534.907l-.135.522a.766.766,0,0,1-.37.471.8.8,0,0,1-.6.071,8.428,8.428,0,0,0-2.342-.35c-2.59,0-2.59,1.229-2.59,1.743C661.694,109.371,662.669,109.814,664.384,110.486Z" fill="#019df4"/>
    <path id="Trazado_11198" data-name="Trazado 11198" d="M634.493,138.257a3.712,3.712,0,0,1-3.75-3.571v-4.508a7.739,7.739,0,0,1-3.765-2.771,7.881,7.881,0,0,1-1.5-4.671V100.178a8.006,8.006,0,0,1,8.12-7.864h33.649a8.006,8.006,0,0,1,8.12,7.864v22.558a8.006,8.006,0,0,1-8.12,7.864H642.5l-4.918,6.107A3.724,3.724,0,0,1,634.493,138.257Zm-.9-45.443a7.51,7.51,0,0,0-7.622,7.364v22.558a7.323,7.323,0,0,0,5.089,7.021l.171.057v4.872a3.207,3.207,0,0,0,3.252,3.071,3.268,3.268,0,0,0,2.7-1.357l5.068-6.3h24.98a7.505,7.505,0,0,0,7.622-7.364V100.178a7.5,7.5,0,0,0-7.622-7.364Zm.933,43.429a1.713,1.713,0,0,1-1.7-1.586v-5.486a.774.774,0,0,0-.626-.743,5.782,5.782,0,0,1-4.662-5.778V99.971a6,6,0,0,1,6.1-5.9h33.834a6.007,6.007,0,0,1,6.092,5.9V122.65a6.02,6.02,0,0,1-6.107,5.9h-25.5a.8.8,0,0,0-.619.286l-5.345,6.635A1.687,1.687,0,0,1,634.529,136.243Zm-.89-41.672a5.508,5.508,0,0,0-5.6,5.4V122.65a5.287,5.287,0,0,0,4.263,5.286,1.268,1.268,0,0,1,1.025,1.228v5.486a1.241,1.241,0,0,0,2.277.514l5.345-6.643a1.281,1.281,0,0,1,1-.478h25.5a5.52,5.52,0,0,0,5.608-5.4V99.971a5.507,5.507,0,0,0-5.594-5.4Zm2.8,24.943a11.545,11.545,0,0,1-3.637-.571,1,1,0,0,1-.633-1.179l.135-.55a.993.993,0,0,1,.5-.636,1.039,1.039,0,0,1,.812-.085c2.007.614,4.156.5,4.9.007a1.424,1.424,0,0,0,.577-1.322c0-1.25-.769-1.671-2.648-2.392-1.736-.679-4.113-1.6-4.113-4.572a3.913,3.913,0,0,1,1.3-3.078c1.388-1.193,3.893-1.436,6.7-.643a1.006,1.006,0,0,1,.719,1.214l-.136.529a1.021,1.021,0,0,1-.491.628,1.052,1.052,0,0,1-.79.093,8.257,8.257,0,0,0-2.3-.343c-2.363,0-2.363,1.022-2.363,1.507,0,1.143.74,1.55,2.548,2.25l.021.007c1.779.693,4.22,1.643,4.22,4.765a4,4,0,0,1-1.416,3.228A6,6,0,0,1,636.436,119.514Zm-3.131-2.571a.506.506,0,0,0-.264.071.482.482,0,0,0-.256.322l-.135.55a.5.5,0,0,0,.32.592,11.082,11.082,0,0,0,3.466.543c3.06,0,4.818-1.407,4.818-3.864,0-2.779-2.071-3.586-3.9-4.293l-.021-.007c-1.772-.693-2.861-1.193-2.861-2.721,0-.55,0-2.008,2.861-2.008a8.933,8.933,0,0,1,2.434.358.564.564,0,0,0,.413-.05.525.525,0,0,0,.249-.322l.135-.521a.5.5,0,0,0-.363-.607c-2.648-.75-4.982-.543-6.242.542a3.427,3.427,0,0,0-1.131,2.693c0,2.629,2.021,3.415,3.8,4.1,1.836.707,2.961,1.229,2.961,2.865a1.9,1.9,0,0,1-.811,1.742c-.954.629-3.338.658-5.317.05A.3.3,0,0,0,633.3,116.943Zm30.1,2.378a11.463,11.463,0,0,1-3.616-.571.981.981,0,0,1-.626-1.172l.135-.542a1.008,1.008,0,0,1,.5-.636,1.056,1.056,0,0,1,.8-.086c1.992.614,4.12.5,4.86.007a1.4,1.4,0,0,0,.577-1.307c0-1.243-.762-1.657-2.626-2.378-1.73-.672-4.092-1.593-4.092-4.536a3.867,3.867,0,0,1,1.3-3.057c1.381-1.186,3.864-1.429,6.654-.636a1.013,1.013,0,0,1,.712,1.207l-.135.529a1,1,0,0,1-.491.628,1.086,1.086,0,0,1-.79.093,8.4,8.4,0,0,0-2.271-.336c-2.341,0-2.341,1.008-2.341,1.493-.014,1.136.719,1.536,2.519,2.236l.022.007c1.765.686,4.191,1.629,4.191,4.729a3.969,3.969,0,0,1-1.409,3.207A6.059,6.059,0,0,1,663.4,119.321Zm-3.11-2.55a.467.467,0,0,0-.257.072.527.527,0,0,0-.256.314l-.135.55a.5.5,0,0,0,.313.586,11.018,11.018,0,0,0,3.445.535c3.039,0,4.782-1.4,4.782-3.835,0-2.757-2.057-3.557-3.871-4.265l-.022-.007c-1.772-.685-2.854-1.185-2.839-2.707,0-.543,0-1.993,2.839-1.993a8.82,8.82,0,0,1,2.413.357.558.558,0,0,0,.413-.05.526.526,0,0,0,.249-.314l.135-.521a.51.51,0,0,0-.363-.607c-2.626-.743-4.946-.543-6.2.535a3.385,3.385,0,0,0-1.131,2.679c0,2.607,2.007,3.386,3.779,4.071,1.822.707,2.946,1.222,2.946,2.843a1.884,1.884,0,0,1-.8,1.729c-.947.628-3.317.65-5.281.05A.525.525,0,0,0,660.292,116.771Zm-15.366,2.286a1.017,1.017,0,0,1-1.01-1V105.193a1.016,1.016,0,0,1,1.025-1h.583a1.024,1.024,0,0,1,.911.543l4.092,7.742,4.206-7.764a1.061,1.061,0,0,1,.911-.536h.534a1.012,1.012,0,0,1,1.025,1v12.865a1.014,1.014,0,0,1-1.011,1h-.555a1.013,1.013,0,0,1-1.025-1V110.3l-2.91,5.393a1.048,1.048,0,0,1-.9.535h-.577a1.043,1.043,0,0,1-.911-.542l-2.789-5.279v7.65a1.04,1.04,0,0,1-.306.721,1,1,0,0,1-.719.286h-.541A.054.054,0,0,0,644.926,119.057Zm.022-14.357a.507.507,0,0,0-.527.5v12.857a.516.516,0,0,0,.527.5h.548a.534.534,0,0,0,.37-.143.489.489,0,0,0,.156-.364V108.4l3.73,7.05a.529.529,0,0,0,.469.278h.577a.549.549,0,0,0,.47-.278l3.857-7.107v9.707a.513.513,0,0,0,.512.5h.562a.512.512,0,0,0,.52-.507v-12.85a.516.516,0,0,0-.527-.5h-.541a.549.549,0,0,0-.476.278l-4.648,8.572-4.519-8.565a.53.53,0,0,0-.47-.278Z" fill="#019df4"/>
  </g>
</svg>
